<?xml version="1.0" encoding="UTF-8"?>
<svg version="1.1" xmlns="http://www.w3.org/2000/svg" width="48" height="48">
<path d="M0 0 C0.79470703 -0.020625 1.58941406 -0.04125 2.40820312 -0.0625 C8.87140192 -0.10526724 12.98290131 1.25048026 17.875 5.6875 C23.44205104 11.85639439 24.38566748 15.95719012 24.4375 24.0625 C24.458125 24.85720703 24.47875 25.65191406 24.5 26.47070312 C24.54276724 32.93390192 23.18701974 37.04540131 18.75 41.9375 C12.58110561 47.50455104 8.48030988 48.44816748 0.375 48.5 C-0.41970703 48.520625 -1.21441406 48.54125 -2.03320312 48.5625 C-8.49640192 48.60526724 -12.60790131 47.24951974 -17.5 42.8125 C-22.9427978 36.78129163 -24.02665482 32.67269955 -24.125 24.5625 C-24.15400391 23.78455078 -24.18300781 23.00660156 -24.21289062 22.20507812 C-24.27600498 16.38399255 -23.09710503 12.09311299 -19.8125 7.25 C-17.77734375 5.19140625 -17.77734375 5.19140625 -15.75 3.8125 C-15.07839844 3.33941406 -14.40679687 2.86632812 -13.71484375 2.37890625 C-9.27655234 -0.25490528 -4.98952324 0.03190742 0 0 Z " fill="#E6E6EB" transform="translate(23.8125,-0.25)"/>
<path d="M0 0 C5.24478437 5.99222949 7.40787597 10.11470226 7.35546875 18.1015625 C6.65426733 23.81905102 3.22556604 28.2303503 -1 32 C-7.67644182 33.88309897 -16.17424634 34.38718816 -22.4375 31.3125 C-25.04995859 28.95491542 -27.54622933 26.52193096 -30 24 C-30.66 23.67 -31.32 23.34 -32 23 C-31.67 20.69 -31.34 18.38 -31 16 C-29.68 16.33 -28.36 16.66 -27 17 C-27 17.66 -27 18.32 -27 19 C-26.34 19 -25.68 19 -25 19 C-24.67 21.64 -24.34 24.28 -24 27 C-22.68 27 -21.36 27 -20 27 C-20 25.35 -20 23.7 -20 22 C-18.37585622 21.80522261 -16.75063577 21.61940542 -15.125 21.4375 C-14.22007813 21.33308594 -13.31515625 21.22867187 -12.3828125 21.12109375 C-10 21 -10 21 -8 22 C-7.67 22.99 -7.34 23.98 -7 25 C-6.01 25.33 -5.02 25.66 -4 26 C-3.814375 24.39125 -3.814375 24.39125 -3.625 22.75 C-3.09603139 19.57618837 -2.51897548 17.73415587 -1 15 C-1 14.34 -1 13.68 -1 13 C-0.01 13 0.98 13 2 13 C1.505 10.525 1.505 10.525 1 8 C0.01 8.33 -0.98 8.66 -2 9 C-3.71567661 12.50294871 -3.71567661 12.50294871 -5 16 C-6.32 16 -7.64 16 -9 16 C-9.4125 15.05125 -9.825 14.1025 -10.25 13.125 C-12.10778857 9.80752042 -12.71300726 9.43805932 -16 8 C-19 4.57142857 -19 4.57142857 -19 2 C-19.99 2 -20.98 2 -22 2 C-22 1.34 -22 0.68 -22 0 C-19.69 0 -17.38 0 -15 0 C-14.67 1.98 -14.34 3.96 -14 6 C-13.34 5.67 -12.68 5.34 -12 5 C-11.34 5.33 -10.68 5.66 -10 6 C-10.20625 5.401875 -10.4125 4.80375 -10.625 4.1875 C-11 2 -11 2 -9 -1 C-5.47044908 -2.58221248 -3.2563262 -1.93828941 0 0 Z " fill="#E7E6ED" transform="translate(36,8)"/>
<path d="M0 0 C2.20770805 -0.08165496 4.41630425 -0.13948488 6.625 -0.1875 C7.85476562 -0.22230469 9.08453125 -0.25710937 10.3515625 -0.29296875 C16.91064852 0.23372445 20.69247488 3.22679649 25 8 C29.20765085 13.10929031 29.20938491 17.46131507 29.25 23.8125 C29.270625 24.60720703 29.29125 25.40191406 29.3125 26.22070312 C29.35526724 32.68390192 27.99951974 36.79540131 23.5625 41.6875 C17.39360561 47.25455104 13.29280988 48.19816748 5.1875 48.25 C4.39279297 48.270625 3.59808594 48.29125 2.77929688 48.3125 C-3.68390192 48.35526724 -7.79540131 46.99951974 -12.6875 42.5625 C-18.25455104 36.39360561 -19.19816748 32.29280988 -19.25 24.1875 C-19.270625 23.39279297 -19.29125 22.59808594 -19.3125 21.77929688 C-19.34579458 16.74765371 -18.72915201 13.39007533 -16 9 C-15 8 -15 8 -11.9375 7.9375 C-10.4834375 7.9684375 -10.4834375 7.9684375 -9 8 C-10.04781232 10.74043223 -11.15921234 13.2929507 -12.5625 15.875 C-14.13745907 19.29882407 -14.57022226 22.27525956 -15 26 C-15.33 26.66 -15.66 27.32 -16 28 C-13.80125142 34.1333513 -11.22456337 38.93474465 -5.4375 42.3125 C0.2548957 44.90958929 6.32668672 45.10821994 12.3046875 43.3046875 C18.32210056 40.60252843 22.49132271 36.14080571 25 30 C25.90600752 23.49242673 25.96892097 17.60121839 22.375 11.9375 C16.28463286 4.24366437 9.31124523 2.82356732 0 1 C0 0.67 0 0.34 0 0 Z " fill="#FAFAFB" transform="translate(19,0)"/>
<path d="M0 0 C1.98 0.495 1.98 0.495 4 1 C4 1.66 4 2.32 4 3 C4.66 3 5.32 3 6 3 C6.33 5.64 6.66 8.28 7 11 C8.32 11 9.64 11 11 11 C11 9.35 11 7.7 11 6 C12.62414378 5.80522261 14.24936423 5.61940542 15.875 5.4375 C16.77992187 5.33308594 17.68484375 5.22867187 18.6171875 5.12109375 C21 5 21 5 23 6 C23.33 6.99 23.66 7.98 24 9 C24.99 9.33 25.98 9.66 27 10 C27.2475 9.401875 27.495 8.80375 27.75 8.1875 C29.18072525 5.68373081 30.5691582 4.51927612 33 3 C33.66 3 34.32 3 35 3 C34.65697871 11.02669821 34.65697871 11.02669821 32.3125 14.5 C26.64904928 18.17358965 18.5344407 17.64715231 12 17 C7.49235202 14.78715463 4.4809108 11.57760277 1 8 C0.34 7.67 -0.32 7.34 -1 7 C-0.67 4.69 -0.34 2.38 0 0 Z " fill="#F9F9FA" transform="translate(5,24)"/>
<path d="M0 0 C8.47230183 -0.41365669 14.07541621 0.22970556 21.1875 5.25 C26.53387666 10.47756829 28.24559907 14.02887005 28.5625 21.4375 C28.32782576 28.48581939 26.37148441 32.55790858 21.5078125 37.5234375 C16.01999907 42.4425656 10.94137732 43.45526184 3.7890625 43.3203125 C-2.34179936 42.61620792 -7.00819936 39.65710075 -11 35 C-10.67 34.34 -10.34 33.68 -10 33 C-8.56770833 34.23697917 -7.13541667 35.47395833 -5.703125 36.7109375 C-0.45265285 40.68491871 4.59629034 40.71742805 11 40 C17.20450146 38.09646307 20.80430336 34.75832746 24.0703125 29.16796875 C26.217765 24.16025389 25.97100546 18.43674374 23.97265625 13.421875 C21.05348003 8.53771312 17.85955486 5.58664526 12.5234375 3.57421875 C8.02362651 2.55026795 3.58102404 2.69174418 -1 3 C-0.67 2.01 -0.34 1.02 0 0 Z " fill="#303D87" transform="translate(17,2)"/>
<path d="M0 0 C11.08823183 -0.7845447 11.08823183 -0.7845447 14.6875 2.3125 C16 5 16 5 17 8 C17.66 8 18.32 8 19 8 C20.32 5.36 21.64 2.72 23 0 C23.99 0 24.98 0 26 0 C26.33 1.65 26.66 3.3 27 5 C26.01 5 25.02 5 24 5 C24.3403125 5.8353125 24.3403125 5.8353125 24.6875 6.6875 C25.12622926 9.93409652 23.75020337 11.30737943 22 14 C21.30420546 16.19130534 21.30420546 16.19130534 21 18 C19.1640625 17.875 19.1640625 17.875 17 17 C15.6484375 14.3125 15.6484375 14.3125 14.375 11 C12.42236123 6.43388553 12.42236123 6.43388553 8.390625 3.984375 C5.86212043 3.77009495 3.52206661 3.74081529 1 4 C0.67 2.68 0.34 1.36 0 0 Z " fill="#C04D41" transform="translate(11,16)"/>
<path d="M0 0 C0.99 0.99 1.98 1.98 3 3 C3.66 2.01 4.32 1.02 5 0 C6.95907329 3.91814658 6.36124833 8.71920726 6 13 C4.5 16.6875 4.5 16.6875 3 19 C2.01879536 15.94736336 2.01879536 14.05263664 3 11 C2.05125 11.639375 1.1025 12.27875 0.125 12.9375 C-3 15 -3 15 -5 16 C-4.690625 15.113125 -4.38125 14.22625 -4.0625 13.3125 C-3.1709329 10.53290845 -2.50622993 7.86863625 -2 5 C-1.01 5 -0.02 5 1 5 C0.67 3.35 0.34 1.7 0 0 Z " fill="#D8D9E4" transform="translate(37,16)"/>
<path d="M0 0 C2.9375 0.375 2.9375 0.375 6 1 C6.33 1.66 6.66 2.32 7 3 C5.68 3.33 4.36 3.66 3 4 C2.87625 4.78375 2.7525 5.5675 2.625 6.375 C2 9 2 9 0 11 C-3.41051378 10.44991713 -6.38115316 9.71052785 -8.6875 7.0625 C-10 5 -10 5 -10 3 C-10.99 3 -11.98 3 -13 3 C-13 2.34 -13 1.68 -13 1 C-10.69 1 -8.38 1 -6 1 C-5.67 2.98 -5.34 4.96 -5 7 C-4.34 6.67 -3.68 6.34 -3 6 C-2.34 6.33 -1.68 6.66 -1 7 C-1.20625 6.401875 -1.4125 5.80375 -1.625 5.1875 C-2 3 -2 3 0 0 Z " fill="#FAFAFB" transform="translate(27,7)"/>
<path d="M0 0 C1.98 0.99 1.98 0.99 4 2 C3.67 3.65 3.34 5.3 3 7 C3.99 7.33 4.98 7.66 6 8 C6.804375 8.969375 7.60875 9.93875 8.4375 10.9375 C11.22749353 14.3304191 11.22749353 14.3304191 15 16 C17.78824758 16.13997227 20.46827116 16.1888913 23.25 16.125 C23.99507812 16.11597656 24.74015625 16.10695313 25.5078125 16.09765625 C27.33868059 16.07418358 29.16938238 16.03831525 31 16 C27.92364733 19.07635267 24.99481459 19.2216288 20.8125 19.375 C14.89146897 19.32806977 11.56373992 17.59913126 7 14 C6.05125 13.360625 5.1025 12.72125 4.125 12.0625 C1.50645651 9.5209725 0.80939652 7.5319121 0 4 C0 2.68 0 1.36 0 0 Z " fill="#DEE0EB" transform="translate(2,24)"/>
<path d="M0 0 C0.33 1.65 0.66 3.3 1 5 C-1.97 5 -4.94 5 -8 5 C-8 6.65 -8 8.3 -8 10 C-9.32 9.67 -10.64 9.34 -12 9 C-12 6.36 -12 3.72 -12 1 C-10.37512529 0.83211627 -8.75009558 0.66573213 -7.125 0.5 C-6.22007813 0.4071875 -5.31515625 0.314375 -4.3828125 0.21875 C-2 0 -2 0 0 0 Z " fill="#555978" transform="translate(23,24)"/>
<path d="M0 0 C1.98 0.495 1.98 0.495 4 1 C4 1.66 4 2.32 4 3 C4.66 3 5.32 3 6 3 C6.33 5.97 6.66 8.94 7 12 C8.32 12 9.64 12 11 12 C11.66 13.32 12.32 14.64 13 16 C10.13506824 15.9157373 8.46584707 15.4739994 6.4375 13.41015625 C5.41196179 12.15643578 4.40828648 10.88444271 3.4296875 9.59375 C1.9865905 7.72051898 1.9865905 7.72051898 -1 7 C-0.67 4.69 -0.34 2.38 0 0 Z " fill="#FBFBFC" transform="translate(5,24)"/>
<path d="M0 0 C1.93681161 -0.08107583 3.8745934 -0.13922475 5.8125 -0.1875 C6.89144531 -0.22230469 7.97039063 -0.25710938 9.08203125 -0.29296875 C12 0 12 0 13.88671875 1.38671875 C15 3 15 3 15 5 C14.34 5 13.68 5 13 5 C12.67 5.66 12.34 6.32 12 7 C11.67 6.34 11.34 5.68 11 5 C8.64400765 4.53248212 8.64400765 4.53248212 5.9375 4.375 C5.01839844 4.30023437 4.09929688 4.22546875 3.15234375 4.1484375 C2.44207031 4.09945313 1.73179688 4.05046875 1 4 C0.67 2.68 0.34 1.36 0 0 Z " fill="#C15C55" transform="translate(11,16)"/>
<path d="M0 0 C0.99 0 1.98 0 3 0 C3.33 1.65 3.66 3.3 4 5 C3.01 5 2.02 5 1 5 C1.226875 5.556875 1.45375 6.11375 1.6875 6.6875 C2.12622926 9.93409652 0.75020337 11.30737943 -1 14 C-1.69579454 16.19130534 -1.69579454 16.19130534 -2 18 C-3.32 17.67 -4.64 17.34 -6 17 C-5.34 16.67 -4.68 16.34 -4 16 C-2.60343812 12.38536925 -1.68332564 8.80709999 -1 5 C-0.66666667 3.33333333 -0.33333333 1.66666667 0 0 Z " fill="#8F8690" transform="translate(34,16)"/>
<path d="M0 0 C1.98 0 3.96 0 6 0 C5.01 3.3 4.02 6.6 3 10 C2.01 9.34 1.02 8.68 0 8 C0 7.34 0 6.68 0 6 C-1.32 5.67 -2.64 5.34 -4 5 C-2.68 5 -1.36 5 0 5 C0 3.35 0 1.7 0 0 Z " fill="#E9EAF0" transform="translate(16,30)"/>
<path d="M0 0 C0.33 0.66 0.66 1.32 1 2 C2.32 2 3.64 2 5 2 C5 2.66 5 3.32 5 4 C4.01 4 3.02 4 2 4 C2.33 5.65 2.66 7.3 3 9 C2.01 8.34 1.02 7.68 0 7 C-1.9896995 6.60986284 -3.99019869 6.26797351 -6 6 C-4 4 -2 2 0 0 Z " fill="#454F92" transform="translate(10,2)"/>
<path d="M0 0 C3.63 0 7.26 0 11 0 C11.33 0.66 11.66 1.32 12 2 C5.565 2.495 5.565 2.495 -1 3 C-0.67 2.01 -0.34 1.02 0 0 Z " fill="#202E80" transform="translate(17,2)"/>
<path d="M0 0 C0.66 0.33 1.32 0.66 2 1 C0.68 3.31 -0.64 5.62 -2 8 C-3.65 7.67 -5.3 7.34 -7 7 C-6.01 6.67 -5.02 6.34 -4 6 C-2.90833725 4.06669397 -2.90833725 4.06669397 -2 2 C-1.34 1.34 -0.68 0.68 0 0 Z " fill="#EAEAEF" transform="translate(36,28)"/>
<path d="M0 0 C0.99 0 1.98 0 3 0 C3.33 0.99 3.66 1.98 4 3 C4.66 3.33 5.32 3.66 6 4 C6 4.66 6 5.32 6 6 C4.68 6.33 3.36 6.66 2 7 C0.5393715 4.35261084 0 3.10551666 0 0 Z " fill="#BD5648" transform="translate(24,21)"/>
<path d="M0 0 C1.98 0.99 1.98 0.99 4 2 C3.814375 2.7425 3.62875 3.485 3.4375 4.25 C3.00796892 6.94990963 3.14877026 8.44631077 4 11 C1.9656541 9.58480285 1.09589607 8.45017877 0.578125 6.01953125 C0.33726048 4.01823046 0.16467259 2.0090056 0 0 Z " fill="#BBBED7" transform="translate(2,24)"/>
<path d="M0 0 C0 0.66 0 1.32 0 2 C-0.66 2 -1.32 2 -2 2 C-2.33 2.66 -2.66 3.32 -3 4 C-3.33 3.34 -3.66 2.68 -4 2 C-6.35599235 1.53248212 -6.35599235 1.53248212 -9.0625 1.375 C-9.98160156 1.30023437 -10.90070312 1.22546875 -11.84765625 1.1484375 C-12.55792969 1.09945313 -13.26820312 1.05046875 -14 1 C-14 0.67 -14 0.34 -14 0 C-12.2300132 -0.19532961 -10.45895721 -0.38098882 -8.6875 -0.5625 C-7.70136719 -0.66691406 -6.71523438 -0.77132813 -5.69921875 -0.87890625 C-3 -1 -3 -1 0 0 Z " fill="#AF726E" transform="translate(26,19)"/>
<path d="M0 0 C0 0.99 0 1.98 0 3 C-2.97 3 -5.94 3 -9 3 C-9 2.34 -9 1.68 -9 1 C-2.25 0 -2.25 0 0 0 Z " fill="#1E2958" transform="translate(23,24)"/>
<path d="M0 0 C2.95662966 0.22743305 4.55033688 0.61235938 6.8125 2.5625 C7.204375 3.036875 7.59625 3.51125 8 4 C3.82412255 5.39195915 1.86525224 3.82323219 -2 2 C-1.34 1.34 -0.68 0.68 0 0 Z " fill="#3D4A90" transform="translate(29,3)"/>
</svg>
